<mxfile host="app.diagrams.net" agent="Mozilla/5.0 (Windows NT 10.0; Win64; x64) AppleWebKit/537.36 (KHTML, like Gecko) Chrome/129.0.0.0 Safari/537.36" version="24.7.17">
  <diagram name="第 1 页" id="VZ7OQiBtX-0_Czo5Qx_U">
    <mxGraphModel dx="635" dy="336" grid="1" gridSize="10" guides="1" tooltips="1" connect="1" arrows="1" fold="1" page="1" pageScale="1" pageWidth="827" pageHeight="1169" math="0" shadow="0">
      <root>
        <mxCell id="0" />
        <mxCell id="1" parent="0" />
        <mxCell id="1dYx8zHgz9_z1qNr5crl-2" value="&lt;font face=&quot;Times New Roman&quot;&gt;PSE&lt;/font&gt;" style="rounded=0;whiteSpace=wrap;html=1;" vertex="1" parent="1">
          <mxGeometry x="170" y="360" width="360" height="150" as="geometry" />
        </mxCell>
        <mxCell id="1dYx8zHgz9_z1qNr5crl-42" value="" style="group;fontFamily=Times New Roman;" vertex="1" connectable="0" parent="1">
          <mxGeometry x="330" y="610" width="270" height="160" as="geometry" />
        </mxCell>
        <mxCell id="1dYx8zHgz9_z1qNr5crl-1" value="" style="rounded=0;whiteSpace=wrap;html=1;fontFamily=Times New Roman;" vertex="1" parent="1dYx8zHgz9_z1qNr5crl-42">
          <mxGeometry width="270" height="109.47368421052632" as="geometry" />
        </mxCell>
        <mxCell id="1dYx8zHgz9_z1qNr5crl-10" value="" style="group;fontFamily=Times New Roman;" vertex="1" connectable="0" parent="1dYx8zHgz9_z1qNr5crl-42">
          <mxGeometry x="34.83870967741935" width="191.61290322580646" height="25.263157894736842" as="geometry" />
        </mxCell>
        <mxCell id="1dYx8zHgz9_z1qNr5crl-4" value="mac" style="rounded=0;whiteSpace=wrap;html=1;fontFamily=Times New Roman;" vertex="1" parent="1dYx8zHgz9_z1qNr5crl-10">
          <mxGeometry width="34.83870967741935" height="25.263157894736842" as="geometry" />
        </mxCell>
        <mxCell id="1dYx8zHgz9_z1qNr5crl-5" value="mac" style="rounded=0;whiteSpace=wrap;html=1;fontFamily=Times New Roman;" vertex="1" parent="1dYx8zHgz9_z1qNr5crl-10">
          <mxGeometry x="52.25806451612903" width="34.83870967741935" height="25.263157894736842" as="geometry" />
        </mxCell>
        <mxCell id="1dYx8zHgz9_z1qNr5crl-6" value="mac" style="rounded=0;whiteSpace=wrap;html=1;fontFamily=Times New Roman;" vertex="1" parent="1dYx8zHgz9_z1qNr5crl-10">
          <mxGeometry x="104.51612903225806" width="34.83870967741935" height="25.263157894736842" as="geometry" />
        </mxCell>
        <mxCell id="1dYx8zHgz9_z1qNr5crl-7" value="mac" style="rounded=0;whiteSpace=wrap;html=1;fontFamily=Times New Roman;" vertex="1" parent="1dYx8zHgz9_z1qNr5crl-10">
          <mxGeometry x="156.7741935483871" width="34.83870967741935" height="25.263157894736842" as="geometry" />
        </mxCell>
        <mxCell id="1dYx8zHgz9_z1qNr5crl-11" value="" style="group;fontFamily=Times New Roman;" vertex="1" connectable="0" parent="1dYx8zHgz9_z1qNr5crl-42">
          <mxGeometry x="34.83870967741935" y="84.21052631578947" width="191.61290322580646" height="25.263157894736842" as="geometry" />
        </mxCell>
        <mxCell id="1dYx8zHgz9_z1qNr5crl-12" value="phy" style="rounded=0;whiteSpace=wrap;html=1;fontFamily=Times New Roman;" vertex="1" parent="1dYx8zHgz9_z1qNr5crl-11">
          <mxGeometry width="34.83870967741935" height="25.263157894736842" as="geometry" />
        </mxCell>
        <mxCell id="1dYx8zHgz9_z1qNr5crl-13" value="phy" style="rounded=0;whiteSpace=wrap;html=1;fontFamily=Times New Roman;" vertex="1" parent="1dYx8zHgz9_z1qNr5crl-11">
          <mxGeometry x="52.25806451612903" width="34.83870967741935" height="25.263157894736842" as="geometry" />
        </mxCell>
        <mxCell id="1dYx8zHgz9_z1qNr5crl-14" value="phy" style="rounded=0;whiteSpace=wrap;html=1;fontFamily=Times New Roman;" vertex="1" parent="1dYx8zHgz9_z1qNr5crl-11">
          <mxGeometry x="104.51612903225806" width="34.83870967741935" height="25.263157894736842" as="geometry" />
        </mxCell>
        <mxCell id="1dYx8zHgz9_z1qNr5crl-15" value="phy" style="rounded=0;whiteSpace=wrap;html=1;fontFamily=Times New Roman;" vertex="1" parent="1dYx8zHgz9_z1qNr5crl-11">
          <mxGeometry x="156.7741935483871" width="34.83870967741935" height="25.263157894736842" as="geometry" />
        </mxCell>
        <mxCell id="1dYx8zHgz9_z1qNr5crl-25" style="edgeStyle=orthogonalEdgeStyle;rounded=0;orthogonalLoop=1;jettySize=auto;html=1;entryX=0.5;entryY=0;entryDx=0;entryDy=0;shape=link;fontFamily=Times New Roman;" edge="1" parent="1dYx8zHgz9_z1qNr5crl-42" source="1dYx8zHgz9_z1qNr5crl-4" target="1dYx8zHgz9_z1qNr5crl-12">
          <mxGeometry relative="1" as="geometry" />
        </mxCell>
        <mxCell id="1dYx8zHgz9_z1qNr5crl-28" style="edgeStyle=orthogonalEdgeStyle;rounded=0;orthogonalLoop=1;jettySize=auto;html=1;entryX=0.5;entryY=0;entryDx=0;entryDy=0;shape=link;fontFamily=Times New Roman;" edge="1" parent="1dYx8zHgz9_z1qNr5crl-42">
          <mxGeometry relative="1" as="geometry">
            <mxPoint x="104.51612903225806" y="25.263157894736842" as="sourcePoint" />
            <mxPoint x="104.51612903225806" y="84.21052631578947" as="targetPoint" />
          </mxGeometry>
        </mxCell>
        <mxCell id="1dYx8zHgz9_z1qNr5crl-29" style="edgeStyle=orthogonalEdgeStyle;rounded=0;orthogonalLoop=1;jettySize=auto;html=1;entryX=0.5;entryY=0;entryDx=0;entryDy=0;shape=link;fontFamily=Times New Roman;" edge="1" parent="1dYx8zHgz9_z1qNr5crl-42">
          <mxGeometry relative="1" as="geometry">
            <mxPoint x="156.7741935483871" y="25.263157894736842" as="sourcePoint" />
            <mxPoint x="156.7741935483871" y="84.21052631578947" as="targetPoint" />
          </mxGeometry>
        </mxCell>
        <mxCell id="1dYx8zHgz9_z1qNr5crl-30" style="edgeStyle=orthogonalEdgeStyle;rounded=0;orthogonalLoop=1;jettySize=auto;html=1;entryX=0.5;entryY=0;entryDx=0;entryDy=0;shape=link;fontFamily=Times New Roman;" edge="1" parent="1dYx8zHgz9_z1qNr5crl-42">
          <mxGeometry relative="1" as="geometry">
            <mxPoint x="209.03225806451613" y="25.263157894736842" as="sourcePoint" />
            <mxPoint x="209.03225806451613" y="84.21052631578947" as="targetPoint" />
          </mxGeometry>
        </mxCell>
        <mxCell id="1dYx8zHgz9_z1qNr5crl-31" value="&lt;font&gt;7530 switch&lt;/font&gt;" style="text;html=1;align=center;verticalAlign=middle;whiteSpace=wrap;rounded=0;fontFamily=Times New Roman;" vertex="1" parent="1dYx8zHgz9_z1qNr5crl-42">
          <mxGeometry y="42.10526315789473" width="52.25806451612903" height="25.263157894736842" as="geometry" />
        </mxCell>
        <mxCell id="1dYx8zHgz9_z1qNr5crl-32" value="" style="shape=doubleArrow;direction=south;whiteSpace=wrap;html=1;strokeWidth=1;fontFamily=Times New Roman;" vertex="1" parent="1dYx8zHgz9_z1qNr5crl-42">
          <mxGeometry x="46.16129032258065" y="109.47368421052632" width="13.064516129032258" height="33.68421052631579" as="geometry" />
        </mxCell>
        <mxCell id="1dYx8zHgz9_z1qNr5crl-33" value="" style="shape=doubleArrow;direction=south;whiteSpace=wrap;html=1;strokeWidth=1;fontFamily=Times New Roman;" vertex="1" parent="1dYx8zHgz9_z1qNr5crl-42">
          <mxGeometry x="97.54838709677419" y="109.47368421052632" width="13.064516129032258" height="33.68421052631579" as="geometry" />
        </mxCell>
        <mxCell id="1dYx8zHgz9_z1qNr5crl-34" value="" style="shape=doubleArrow;direction=south;whiteSpace=wrap;html=1;strokeWidth=1;fontFamily=Times New Roman;" vertex="1" parent="1dYx8zHgz9_z1qNr5crl-42">
          <mxGeometry x="149.80645161290323" y="109.47368421052632" width="13.064516129032258" height="33.68421052631579" as="geometry" />
        </mxCell>
        <mxCell id="1dYx8zHgz9_z1qNr5crl-35" value="" style="shape=doubleArrow;direction=south;whiteSpace=wrap;html=1;strokeWidth=1;fontFamily=Times New Roman;" vertex="1" parent="1dYx8zHgz9_z1qNr5crl-42">
          <mxGeometry x="203.80645161290323" y="109.47368421052632" width="13.064516129032258" height="33.68421052631579" as="geometry" />
        </mxCell>
        <mxCell id="1dYx8zHgz9_z1qNr5crl-37" value="&lt;font style=&quot;font-size: 9px;&quot;&gt;eth1&lt;/font&gt;" style="text;html=1;align=center;verticalAlign=middle;whiteSpace=wrap;rounded=0;fontFamily=Times New Roman;" vertex="1" parent="1dYx8zHgz9_z1qNr5crl-42">
          <mxGeometry x="29.177419354838708" y="143.1578947368421" width="47.03225806451613" height="16.842105263157894" as="geometry" />
        </mxCell>
        <mxCell id="1dYx8zHgz9_z1qNr5crl-39" value="&lt;font style=&quot;font-size: 9px;&quot;&gt;eth2&lt;/font&gt;" style="text;html=1;align=center;verticalAlign=middle;whiteSpace=wrap;rounded=0;fontFamily=Times New Roman;" vertex="1" parent="1dYx8zHgz9_z1qNr5crl-42">
          <mxGeometry x="80.56451612903226" y="143.1578947368421" width="47.03225806451613" height="16.842105263157894" as="geometry" />
        </mxCell>
        <mxCell id="1dYx8zHgz9_z1qNr5crl-40" value="&lt;font style=&quot;font-size: 9px;&quot;&gt;eth3&lt;/font&gt;" style="text;html=1;align=center;verticalAlign=middle;whiteSpace=wrap;rounded=0;fontFamily=Times New Roman;" vertex="1" parent="1dYx8zHgz9_z1qNr5crl-42">
          <mxGeometry x="132.82258064516128" y="143.1578947368421" width="47.03225806451613" height="16.842105263157894" as="geometry" />
        </mxCell>
        <mxCell id="1dYx8zHgz9_z1qNr5crl-41" value="&lt;font style=&quot;font-size: 9px;&quot;&gt;eth4&lt;/font&gt;" style="text;html=1;align=center;verticalAlign=middle;whiteSpace=wrap;rounded=0;fontFamily=Times New Roman;" vertex="1" parent="1dYx8zHgz9_z1qNr5crl-42">
          <mxGeometry x="186.82258064516128" y="143.1578947368421" width="47.03225806451613" height="16.842105263157894" as="geometry" />
        </mxCell>
        <mxCell id="1dYx8zHgz9_z1qNr5crl-47" value="&lt;font face=&quot;Times New Roman&quot;&gt;P1&lt;/font&gt;" style="text;html=1;align=center;verticalAlign=middle;whiteSpace=wrap;rounded=0;" vertex="1" parent="1">
          <mxGeometry x="440" y="490" width="50" height="20" as="geometry" />
        </mxCell>
        <mxCell id="1dYx8zHgz9_z1qNr5crl-55" value="" style="group" vertex="1" connectable="0" parent="1">
          <mxGeometry x="406.88" y="510" width="115" height="100" as="geometry" />
        </mxCell>
        <mxCell id="1dYx8zHgz9_z1qNr5crl-53" value="" style="shape=doubleArrow;direction=south;whiteSpace=wrap;html=1;arrowWidth=0.3104755704365137;arrowSize=0.19142857142857225;strokeColor=default;fillColor=#000000;" vertex="1" parent="1dYx8zHgz9_z1qNr5crl-55">
          <mxGeometry x="51.870000000000005" width="11.25" height="100" as="geometry" />
        </mxCell>
        <mxCell id="1dYx8zHgz9_z1qNr5crl-3" value="GDMA1" style="rounded=0;whiteSpace=wrap;html=1;fontFamily=Times New Roman;" vertex="1" parent="1dYx8zHgz9_z1qNr5crl-55">
          <mxGeometry y="36.129999999999995" width="115" height="27.75" as="geometry" />
        </mxCell>
        <mxCell id="1dYx8zHgz9_z1qNr5crl-56" value="" style="group" vertex="1" connectable="0" parent="1">
          <mxGeometry x="414" y="260" width="115" height="100" as="geometry" />
        </mxCell>
        <mxCell id="1dYx8zHgz9_z1qNr5crl-57" value="" style="shape=doubleArrow;direction=south;whiteSpace=wrap;html=1;arrowWidth=0.3104755704365137;arrowSize=0.19142857142857225;strokeColor=default;fillColor=#000000;" vertex="1" parent="1dYx8zHgz9_z1qNr5crl-56">
          <mxGeometry x="51.870000000000005" width="11.25" height="100" as="geometry" />
        </mxCell>
        <mxCell id="1dYx8zHgz9_z1qNr5crl-58" value="&lt;font face=&quot;Times New Roman&quot;&gt;GDMA1&lt;/font&gt;" style="rounded=0;whiteSpace=wrap;html=1;" vertex="1" parent="1dYx8zHgz9_z1qNr5crl-56">
          <mxGeometry y="36.129999999999995" width="115" height="27.75" as="geometry" />
        </mxCell>
        <mxCell id="1dYx8zHgz9_z1qNr5crl-59" value="&lt;font face=&quot;Times New Roman&quot;&gt;P0&lt;/font&gt;" style="text;html=1;align=center;verticalAlign=middle;whiteSpace=wrap;rounded=0;" vertex="1" parent="1">
          <mxGeometry x="446.5" y="360" width="50" height="20" as="geometry" />
        </mxCell>
        <mxCell id="1dYx8zHgz9_z1qNr5crl-60" value="QDMA1" style="rounded=0;whiteSpace=wrap;html=1;" vertex="1" parent="1">
          <mxGeometry x="411" y="220" width="119" height="40" as="geometry" />
        </mxCell>
        <mxCell id="1dYx8zHgz9_z1qNr5crl-62" value="CPU" style="rounded=1;whiteSpace=wrap;html=1;" vertex="1" parent="1">
          <mxGeometry x="308" y="70" width="120" height="60" as="geometry" />
        </mxCell>
        <mxCell id="1dYx8zHgz9_z1qNr5crl-63" style="edgeStyle=orthogonalEdgeStyle;rounded=0;orthogonalLoop=1;jettySize=auto;html=1;entryX=0.537;entryY=0.014;entryDx=0;entryDy=0;entryPerimeter=0;startArrow=classicThin;startFill=1;shape=flexArrow;strokeWidth=1;endSize=5;targetPerimeterSpacing=0;spacing=-1;" edge="1" parent="1" source="1dYx8zHgz9_z1qNr5crl-62" target="1dYx8zHgz9_z1qNr5crl-60">
          <mxGeometry relative="1" as="geometry">
            <Array as="points">
              <mxPoint x="368" y="175" />
              <mxPoint x="475" y="175" />
            </Array>
          </mxGeometry>
        </mxCell>
        <mxCell id="1dYx8zHgz9_z1qNr5crl-67" value="Ether Driver" style="text;html=1;align=center;verticalAlign=middle;whiteSpace=wrap;rounded=0;" vertex="1" parent="1">
          <mxGeometry x="630" y="160" width="94" height="30" as="geometry" />
        </mxCell>
        <mxCell id="1dYx8zHgz9_z1qNr5crl-77" value="" style="shape=singleArrow;direction=north;whiteSpace=wrap;html=1;" vertex="1" parent="1">
          <mxGeometry x="730" y="170" width="30" height="270" as="geometry" />
        </mxCell>
        <mxCell id="1dYx8zHgz9_z1qNr5crl-69" value="Qdma module" style="text;html=1;align=center;verticalAlign=middle;whiteSpace=wrap;rounded=0;" vertex="1" parent="1">
          <mxGeometry x="630" y="210" width="94" height="30" as="geometry" />
        </mxCell>
        <mxCell id="1dYx8zHgz9_z1qNr5crl-73" value="mac:en7512" style="text;html=1;align=center;verticalAlign=middle;whiteSpace=wrap;rounded=0;" vertex="1" parent="1">
          <mxGeometry x="630" y="270" width="94" height="30" as="geometry" />
        </mxCell>
        <mxCell id="1dYx8zHgz9_z1qNr5crl-74" value="phy:tcphy" style="text;html=1;align=center;verticalAlign=middle;whiteSpace=wrap;rounded=0;" vertex="1" parent="1">
          <mxGeometry x="630" y="330" width="94" height="30" as="geometry" />
        </mxCell>
        <mxCell id="1dYx8zHgz9_z1qNr5crl-75" value="eth packet" style="text;html=1;align=center;verticalAlign=middle;whiteSpace=wrap;rounded=0;" vertex="1" parent="1">
          <mxGeometry x="630" y="410" width="94" height="30" as="geometry" />
        </mxCell>
      </root>
    </mxGraphModel>
  </diagram>
</mxfile>
